
<svg id="portfolioLogo" xmlns="http://www.w3.org/2000/svg" viewBox="0 0 80 80" >
<style type="text/css">
	.st0{fill:none;stroke:#000000;stroke-width:0.25;stroke-miterlimit:10;}
	.st1{fill:#4D4D4D;}
	.st2{fill:#EFEFEF;}
	.st3{fill:#FFFFFF;}
</style>
<g>
	<g>
		<path class="st0" d="M52.05,1.1c0,0-43.02,5.33-43.02,14.51s34.18,10.81,34.18,23.07S19.09,60.91,19.09,68.8
			c0,12,20.96,9.98,20.96,9.98"/>
		<path class="st0" d="M52.13,1.1c0,0-40.01,5.33-40.01,14.51S46.3,26.42,46.3,38.68S22.17,60.91,22.17,68.8
			c0,12,20.96,9.98,20.96,9.98"/>
		<path class="st0" d="M52.21,1.1c0,0-37.01,5.32-37.01,14.51s34.18,10.81,34.18,23.07S25.26,60.91,25.26,68.8
			c0,12,20.96,9.98,20.96,9.98"/>
		<path class="st0" d="M52.29,1.1c0,0-34,5.32-34,14.51s34.18,10.81,34.18,23.07S28.34,60.91,28.34,68.8c0,12,20.96,9.98,20.96,9.98
			"/>
		<path class="st0" d="M52.37,1.1c0,0-30.99,5.32-30.99,14.51s34.18,10.81,34.18,23.07S31.43,60.91,31.43,68.8
			c0,12,20.96,9.98,20.96,9.98"/>
		<path class="st0" d="M52.45,1.1c0,0-27.99,5.32-27.99,14.51s34.18,10.81,34.18,23.07S34.51,60.91,34.51,68.8
			c0,12,20.96,9.98,20.96,9.98"/>
		<path class="st0" d="M52.53,1.1c0,0-24.98,5.32-24.98,14.51s34.18,10.81,34.18,23.07S37.6,60.91,37.6,68.8
			c0,12,20.96,9.98,20.96,9.98"/>
	</g>
	<g>
		<polygon class="st1" points="35.15,72.8 9.04,49.22 37.39,33.5 65.17,58.2 		"/>
		<polygon class="st2" points="37.39,33.5 44.64,8.8 18.9,22.27 9.04,49.22 		"/>
		<polygon class="st3" points="44.64,8.8 37.39,33.5 65.17,58.2 70.96,30.39 		"/>
	</g>
</g>
</svg>
